<svg width="66" height="66" viewBox="0 0 66 66" fill="none" xmlns="http://www.w3.org/2000/svg">
<g style="mix-blend-mode:overlay">
<path d="M33 0C37.3761 0 41.5729 1.73839 44.6673 4.83274C47.7616 7.92709 49.5 12.1239 49.5 16.5C49.5 20.8761 47.7616 25.0729 44.6673 28.1673C41.5729 31.2616 37.3761 33 33 33C28.6239 33 24.4271 31.2616 21.3327 28.1673C18.2384 25.0729 16.5 20.8761 16.5 16.5C16.5 12.1239 18.2384 7.92709 21.3327 4.83274C24.4271 1.73839 28.6239 0 33 0ZM33 41.25C51.2325 41.25 66 48.6338 66 57.75V66H0V57.75C0 48.6338 14.7675 41.25 33 41.25Z" fill="white"/>
</g>
</svg>
