<svg width="73" height="66" viewBox="0 0 73 66" fill="none" xmlns="http://www.w3.org/2000/svg">
<g style="mix-blend-mode:overlay">
<path d="M36.5 0C37.3715 0 38.2345 0.170714 39.0396 0.502395C39.8448 0.834076 40.5764 1.32023 41.1926 1.9331C41.8089 2.54596 42.2977 3.27354 42.6312 4.07429C42.9647 4.87504 43.1364 5.73328 43.1364 6.6C43.1364 9.042 41.8091 11.187 39.8182 12.309V16.5H43.1364C49.2966 16.5 55.2046 18.9337 59.5605 23.2658C63.9165 27.5979 66.3636 33.4735 66.3636 39.6H69.6818C70.5619 39.6 71.4058 39.9477 72.0281 40.5666C72.6504 41.1854 73 42.0248 73 42.9V52.8C73 53.6752 72.6504 54.5146 72.0281 55.1334C71.4058 55.7523 70.5619 56.1 69.6818 56.1H66.3636V59.4C66.3636 60.2667 66.192 61.125 65.8585 61.9257C65.525 62.7265 65.0361 63.454 64.4199 64.0669C63.8036 64.6798 63.0721 65.1659 62.2669 65.4976C61.4617 65.8293 60.5988 66 59.7273 66H13.2727C12.4012 66 11.5383 65.8293 10.7331 65.4976C9.92794 65.1659 9.19635 64.6798 8.58011 64.0669C7.96387 63.454 7.47503 62.7265 7.14153 61.9257C6.80802 61.125 6.63636 60.2667 6.63636 59.4V56.1H3.31818C2.43815 56.1 1.59415 55.7523 0.971873 55.1334C0.349593 54.5146 0 53.6752 0 52.8V42.9C0 42.0248 0.349593 41.1854 0.971873 40.5666C1.59415 39.9477 2.43815 39.6 3.31818 39.6H6.63636C6.63636 33.4735 9.08352 27.5979 13.4395 23.2658C17.7954 18.9337 23.7034 16.5 29.8636 16.5H33.1818V12.309C31.1909 11.187 29.8636 9.042 29.8636 6.6C29.8636 5.73328 30.0353 4.87504 30.3688 4.07429C30.7023 3.27354 31.1911 2.54596 31.8074 1.9331C32.4236 1.32023 33.1552 0.834076 33.9604 0.502395C34.7655 0.170714 35.6285 0 36.5 0ZM21.5682 36.3C19.3681 36.3 17.2581 37.1692 15.7024 38.7164C14.1467 40.2635 13.2727 42.362 13.2727 44.55C13.2727 46.738 14.1467 48.8365 15.7024 50.3836C17.2581 51.9308 19.3681 52.8 21.5682 52.8C23.7683 52.8 25.8783 51.9308 27.434 50.3836C28.9897 48.8365 29.8636 46.738 29.8636 44.55C29.8636 42.362 28.9897 40.2635 27.434 38.7164C25.8783 37.1692 23.7683 36.3 21.5682 36.3ZM51.4318 36.3C49.2317 36.3 47.1217 37.1692 45.566 38.7164C44.0103 40.2635 43.1364 42.362 43.1364 44.55C43.1364 46.738 44.0103 48.8365 45.566 50.3836C47.1217 51.9308 49.2317 52.8 51.4318 52.8C53.6319 52.8 55.7419 51.9308 57.2976 50.3836C58.8533 48.8365 59.7273 46.738 59.7273 44.55C59.7273 42.362 58.8533 40.2635 57.2976 38.7164C55.7419 37.1692 53.6319 36.3 51.4318 36.3Z" fill="white"/>
</g>
</svg>
